<?xml version="1.0" encoding="utf-8"?>
<!-- Generator: Adobe Illustrator 28.0.0, SVG Export Plug-In . SVG Version: 6.00 Build 0)  -->
<svg version="1.1" id="Layer_1" xmlns="http://www.w3.org/2000/svg" xmlns:xlink="http://www.w3.org/1999/xlink" x="0px" y="0px"
	 viewBox="0 0 128.18 75" style="enable-background:new 0 0 128.18 75;" xml:space="preserve">
<style type="text/css">
	.st0{fill:#FFFFFF;}
</style>
<path class="st0" d="M18.71,65.64c0,5.17-4.19,9.36-9.36,9.36S0,70.81,0,65.64s4.19-9.36,9.36-9.36S18.71,60.48,18.71,65.64"/>
<polygon class="st0" points="51.78,31.67 51.66,31.52 1.45,31.52 1.26,31.69 1.26,46.08 1.42,46.2 51.73,46.2 51.78,46.15 "/>
<path class="st0" d="M51.58,2.52c-2.55,1.75-6.6,3.23-9.9,3.23C30.97,5.75,22.5-0.01,12.45,0C8.87,0,4.85,1.16,1.26,4.08v15.03
	l0.23,0.11c3.36-2.41,7.19-3.66,10.79-3.66c9.41,0,18.29,5.38,29.03,5.38c3.74,0,8.19-1.56,10.45-3.5V2.59L51.58,2.52z"/>
<path id="u_splitu" class="st0" d="M66.81,41.74v-3.32c0-0.08-0.01-0.13-0.03-0.15c-0.02-0.03-0.07-0.04-0.13-0.05l-0.63-0.06V37.4
	h2.9v0.75l-0.68,0.08c-0.07,0.01-0.11,0.02-0.13,0.04c-0.02,0.02-0.03,0.07-0.03,0.15v3.52c0,1.75-0.96,2.62-2.89,2.62
	c-0.96,0-1.67-0.22-2.11-0.65c-0.44-0.43-0.67-1.1-0.67-2v-3.5c0-0.08-0.01-0.13-0.03-0.15c-0.02-0.03-0.07-0.04-0.13-0.05
	l-0.63-0.06V37.4h3.09v0.75l-0.68,0.08c-0.08,0.01-0.12,0.02-0.13,0.04c-0.01,0.02-0.02,0.07-0.02,0.15v3.31
	c0,0.6,0.11,1.03,0.32,1.29c0.22,0.26,0.6,0.39,1.15,0.39c0.52,0,0.9-0.13,1.13-0.4C66.69,42.74,66.81,42.32,66.81,41.74
	 M80.9,37.68c-0.63-0.27-1.33-0.41-2.09-0.41c-0.8,0-1.45,0.18-1.95,0.55c-0.5,0.37-0.75,0.91-0.75,1.62c0,0.36,0.06,0.67,0.18,0.92
	c0.12,0.25,0.31,0.45,0.56,0.6c0.25,0.15,0.47,0.26,0.67,0.33c0.19,0.07,0.46,0.15,0.79,0.22c0.49,0.12,0.85,0.25,1.08,0.39
	c0.23,0.14,0.34,0.36,0.34,0.67c0,0.63-0.45,0.95-1.36,0.95c-0.42,0-0.76-0.04-1.01-0.13c-0.11-0.03-0.17-0.11-0.19-0.24l-0.16-0.77
	h-1.04v1.82c0.2,0.09,0.54,0.18,1.01,0.27c0.47,0.08,0.92,0.13,1.36,0.13c0.83,0,1.51-0.18,2.03-0.55c0.53-0.37,0.79-0.93,0.79-1.68
	c0-0.29-0.05-0.54-0.14-0.77c-0.09-0.23-0.2-0.41-0.32-0.54c-0.12-0.14-0.3-0.26-0.53-0.37c-0.23-0.11-0.43-0.2-0.58-0.25
	c-0.16-0.05-0.37-0.11-0.65-0.19c-0.46-0.13-0.81-0.26-1.05-0.4s-0.35-0.35-0.35-0.64c0-0.58,0.42-0.87,1.25-0.87
	c0.35,0,0.62,0.04,0.81,0.11c0.07,0.03,0.11,0.1,0.14,0.2l0.11,0.73l1.05,0.09V37.68z M86,38.43h0.79c0.41,0,0.74,0.08,0.97,0.24
	c0.23,0.16,0.35,0.46,0.35,0.91c0,0.5-0.13,0.83-0.4,0.99c-0.27,0.16-0.61,0.25-1.05,0.25H86V38.43z M87.62,43.7l-1.46-0.08
	c-0.08-0.01-0.12-0.02-0.14-0.04C86.01,43.56,86,43.51,86,43.43v-1.6h0.81c1.86,0,2.79-0.77,2.79-2.32c0-1.41-0.82-2.12-2.44-2.12
	h-3.41v0.75l0.65,0.08c0.11,0.01,0.16,0.07,0.16,0.19v5.03c0,0.07-0.01,0.11-0.03,0.13c-0.02,0.02-0.07,0.04-0.13,0.06l-0.65,0.06
	v0.75h3.88V43.7z M97.78,42.38h-1.03l-0.16,0.99c-0.01,0.07-0.06,0.1-0.16,0.1h-1.94v-5.06c0-0.08,0.01-0.12,0.03-0.15
	c0.02-0.02,0.06-0.04,0.13-0.04l0.85-0.08V37.4h-3.26v0.75l0.63,0.08c0.07,0,0.11,0.01,0.13,0.04c0.02,0.03,0.03,0.08,0.03,0.15
	v5.03c0,0.12-0.06,0.18-0.16,0.19l-0.63,0.06v0.75h5.55V42.38z M103.65,43.71l-0.79-0.08c-0.07-0.01-0.11-0.03-0.13-0.05
	c-0.02-0.03-0.03-0.08-0.03-0.15v-5.02c0-0.07,0.01-0.11,0.03-0.13c0.02-0.02,0.06-0.04,0.13-0.04l0.79-0.08V37.4h-3.29v0.76
	l0.73,0.06c0.11,0.01,0.16,0.07,0.16,0.19v5.03c0,0.12-0.06,0.18-0.16,0.19l-0.73,0.08v0.73h3.29V43.71z M111.29,43.7l-1.11-0.08
	c-0.07-0.01-0.11-0.02-0.13-0.04c-0.02-0.02-0.03-0.07-0.03-0.15v-5.03h1.13c0.09,0,0.14,0.03,0.15,0.1l0.16,0.85h1.03V37.4h-6.41
	v1.95h1.04l0.16-0.85c0.01-0.07,0.06-0.1,0.16-0.1h1.11v5.03c0,0.08-0.01,0.13-0.03,0.15c-0.02,0.03-0.07,0.04-0.13,0.05l-1.04,0.06
	v0.75h3.93V43.7z M120.08,41.74c0,0.58-0.11,1.01-0.34,1.27c-0.23,0.27-0.6,0.4-1.13,0.4c-0.55,0-0.93-0.13-1.15-0.39
	c-0.22-0.26-0.32-0.69-0.32-1.29v-3.31c0-0.08,0.01-0.14,0.02-0.15c0.01-0.02,0.06-0.03,0.13-0.04l0.68-0.08V37.4h-3.09v0.75
	l0.63,0.06c0.07,0.01,0.11,0.03,0.13,0.05c0.02,0.03,0.03,0.08,0.03,0.15v3.5c0,0.9,0.22,1.57,0.66,2c0.44,0.43,1.15,0.65,2.11,0.65
	c1.93,0,2.89-0.87,2.89-2.62v-3.52c0-0.08,0.01-0.12,0.03-0.15c0.02-0.02,0.06-0.04,0.13-0.04l0.68-0.08V37.4h-2.9v0.75l0.63,0.06
	c0.07,0.01,0.11,0.03,0.13,0.05c0.02,0.03,0.03,0.08,0.03,0.15V41.74"/>
<path id="fakultet" class="st0" d="M65.62,28.05h-3.9v-0.73l0.63-0.08c0.11-0.01,0.17-0.07,0.17-0.19v-5.03
	c0-0.08-0.01-0.13-0.03-0.15c-0.02-0.03-0.07-0.04-0.13-0.04l-0.63-0.08v-0.75H67v1.86l-1.03-0.04l-0.14-0.71
	C65.82,22.04,65.76,22,65.65,22h-1.68v2.03h2.38v1.01h-2.38v2c0,0.08,0.01,0.12,0.03,0.15c0.02,0.02,0.06,0.04,0.13,0.04l1.5,0.08
	V28.05z M71.05,25.18l1.01-2.93h0.03l1,2.93H71.05z M75.97,27.32L75.5,27.2c-0.14-0.03-0.22-0.09-0.24-0.16l-2.22-6.03h-1.67
	L69.18,27c-0.03,0.11-0.13,0.18-0.28,0.22l-0.43,0.1v0.73h2.7v-0.73l-0.8-0.09l0.39-1.09h2.61l0.38,1.09l-0.86,0.09v0.73h3.08V27.32
	z M85.3,27.31l-0.61-0.09c-0.13-0.02-0.22-0.07-0.29-0.16l-2.15-2.96L84.2,22c0.07-0.09,0.17-0.15,0.3-0.16l0.44-0.06v-0.76h-2.56
	v0.75L83,21.85l-2.46,2.62v-2.43c0-0.08,0.01-0.14,0.03-0.16c0.02-0.02,0.07-0.04,0.13-0.04l0.65-0.08v-0.75h-3.07v0.75l0.63,0.06
	c0.07,0.02,0.11,0.04,0.13,0.06c0.02,0.02,0.03,0.07,0.03,0.15v5.06c0,0.1-0.06,0.16-0.16,0.16l-0.63,0.06v0.75h3.07v-0.75
	l-0.66-0.08c-0.07-0.01-0.11-0.02-0.13-0.04c-0.02-0.02-0.03-0.07-0.03-0.15v-1.19l0.7-0.76l1.49,2.12L82,27.31v0.75h3.31V27.31z
	 M92.63,25.34c0,0.58-0.11,1.01-0.34,1.27c-0.23,0.27-0.6,0.4-1.13,0.4c-0.55,0-0.93-0.13-1.15-0.39c-0.22-0.26-0.32-0.69-0.32-1.29
	v-3.31c0-0.08,0.01-0.14,0.02-0.15c0.01-0.02,0.06-0.03,0.13-0.04l0.68-0.08v-0.75h-3.09v0.75l0.63,0.06
	c0.07,0.01,0.11,0.03,0.13,0.05c0.02,0.03,0.03,0.08,0.03,0.15v3.5c0,0.9,0.22,1.57,0.67,2c0.44,0.43,1.15,0.65,2.11,0.65
	c1.93,0,2.89-0.87,2.89-2.62v-3.52c0-0.08,0.01-0.12,0.03-0.15c0.02-0.02,0.06-0.04,0.13-0.04l0.68-0.08v-0.75h-2.9v0.75l0.63,0.06
	c0.07,0.01,0.11,0.03,0.13,0.05c0.02,0.03,0.03,0.08,0.03,0.15V25.34 M102.86,25.99h-1.03l-0.16,0.99c-0.01,0.07-0.06,0.1-0.16,0.1
	h-1.94v-5.06c0-0.08,0.01-0.12,0.03-0.15c0.02-0.02,0.06-0.04,0.13-0.04l0.85-0.08v-0.75h-3.26v0.75l0.63,0.08
	c0.07,0,0.11,0.01,0.13,0.04c0.02,0.03,0.03,0.08,0.03,0.15v5.03c0,0.12-0.06,0.18-0.16,0.19l-0.63,0.06v0.75h5.55V25.99z
	 M109.55,27.31l-1.12-0.08c-0.07-0.01-0.11-0.02-0.13-0.04c-0.02-0.02-0.03-0.07-0.03-0.15v-5.03h1.13c0.09,0,0.14,0.03,0.15,0.1
	l0.16,0.85h1.03v-1.95h-6.41v1.95h1.04l0.16-0.85c0.01-0.07,0.06-0.1,0.16-0.1h1.11v5.03c0,0.08-0.01,0.13-0.03,0.15
	c-0.02,0.03-0.07,0.04-0.13,0.05l-1.04,0.06v0.75h3.93V27.31z M118.8,26.14h-1.01l-0.16,0.84c-0.01,0.07-0.06,0.1-0.15,0.1h-1.96
	v-2.05h2.42v-1.01h-2.42V22h1.74c0.09,0,0.15,0.04,0.18,0.13l0.13,0.71l1.03,0.04v-1.86h-5.32v0.75l0.63,0.08
	c0.07,0,0.11,0.01,0.13,0.04c0.02,0.03,0.03,0.08,0.03,0.15v5.03c0,0.12-0.06,0.18-0.16,0.19l-0.63,0.08v0.73h5.55V26.14z
	 M126.31,27.31l-1.12-0.08c-0.07-0.01-0.11-0.02-0.13-0.04c-0.02-0.02-0.03-0.07-0.03-0.15v-5.03h1.13c0.09,0,0.14,0.03,0.15,0.1
	l0.16,0.85h1.03v-1.95h-6.41v1.95h1.04l0.16-0.85c0.01-0.07,0.06-0.1,0.16-0.1h1.12v5.03c0,0.08-0.01,0.13-0.03,0.15
	c-0.02,0.03-0.07,0.04-0.13,0.05l-1.04,0.06v0.75h3.93V27.31z"/>
<path id="pomorski" class="st0" d="M63.96,8.03h0.66c0.43,0,0.78-0.08,1.05-0.25c0.27-0.16,0.4-0.5,0.4-0.99
	c0-0.45-0.12-0.75-0.35-0.91c-0.23-0.16-0.56-0.24-0.97-0.24h-0.79V8.03z M65.58,11.66H61.7v-0.75l0.65-0.06
	c0.07-0.02,0.11-0.04,0.13-0.06c0.02-0.02,0.03-0.07,0.03-0.13V5.63c0-0.12-0.06-0.18-0.17-0.19L61.7,5.36V4.61h3.41
	c1.63,0,2.44,0.71,2.44,2.12c0,1.55-0.93,2.32-2.79,2.32h-0.81v1.6c0,0.08,0.01,0.12,0.03,0.15c0.02,0.02,0.06,0.04,0.14,0.04
	l1.46,0.08V11.66z M73.62,10.67c0.62,0,1.1-0.21,1.46-0.63c0.35-0.42,0.53-1.07,0.53-1.95c0-0.82-0.17-1.43-0.51-1.84
	c-0.34-0.41-0.82-0.61-1.43-0.61c-0.62,0-1.13,0.21-1.5,0.63c-0.38,0.42-0.56,1.04-0.56,1.86c0,0.86,0.18,1.5,0.53,1.92
	C72.5,10.46,72.99,10.67,73.62,10.67 M73.55,11.81c-1.16,0-2.02-0.33-2.59-0.99c-0.57-0.66-0.86-1.55-0.86-2.67
	c0-1.08,0.31-1.96,0.94-2.64c0.62-0.68,1.51-1.02,2.66-1.02c1.13,0,1.98,0.33,2.55,0.98c0.57,0.65,0.86,1.5,0.86,2.55
	c0,1.17-0.3,2.1-0.91,2.78C75.6,11.47,74.71,11.81,73.55,11.81 M88.23,11.66h-3.15v-0.73l0.82-0.08c0.07-0.01,0.11-0.03,0.13-0.05
	c0.02-0.03,0.03-0.08,0.03-0.15V6.55h-0.05l-1.53,3.55h-1.61l-1.55-3.55h-0.05v4.09c0,0.08,0.01,0.13,0.03,0.15
	c0.02,0.03,0.06,0.04,0.14,0.05l0.86,0.08v0.73h-3.07v-0.73l0.63-0.08c0.1-0.01,0.15-0.06,0.15-0.15V5.63
	c0-0.08-0.01-0.12-0.03-0.15c-0.02-0.02-0.06-0.04-0.13-0.04l-0.63-0.08V4.61h2.71l1.81,4.32h0.05l1.88-4.32h2.55v0.73l-0.67,0.09
	c-0.11,0.01-0.16,0.08-0.16,0.2v5.02c0,0.12,0.05,0.18,0.16,0.19l0.67,0.08V11.66z M94.34,10.67c0.62,0,1.1-0.21,1.46-0.63
	c0.35-0.42,0.53-1.07,0.53-1.95c0-0.82-0.17-1.43-0.51-1.84C95.48,5.84,95,5.64,94.39,5.64c-0.63,0-1.13,0.21-1.5,0.63
	c-0.38,0.42-0.56,1.04-0.56,1.86c0,0.86,0.18,1.5,0.53,1.92C93.21,10.46,93.7,10.67,94.34,10.67 M94.26,11.81
	c-1.16,0-2.02-0.33-2.59-0.99c-0.57-0.66-0.86-1.55-0.86-2.67c0-1.08,0.31-1.96,0.94-2.64c0.62-0.68,1.51-1.02,2.66-1.02
	c1.13,0,1.98,0.33,2.55,0.98c0.57,0.65,0.86,1.5,0.86,2.55c0,1.17-0.3,2.1-0.91,2.78C96.31,11.47,95.43,11.81,94.26,11.81
	 M101.94,7.78h0.56c0.46,0,0.81-0.08,1.07-0.24c0.26-0.16,0.39-0.46,0.39-0.91c0-0.38-0.11-0.64-0.34-0.79
	c-0.23-0.15-0.6-0.22-1.1-0.22h-0.57V7.78z M106.18,11.66h-2.99v-0.75l0.73-0.09l-0.71-1.71c-0.1-0.24-0.28-0.35-0.54-0.35h-0.73
	v1.88c0,0.08,0.01,0.12,0.03,0.14c0.02,0.02,0.06,0.03,0.14,0.05l0.6,0.09v0.75h-3.02v-0.75l0.65-0.08
	c0.11-0.01,0.17-0.06,0.17-0.16V5.63c0-0.08-0.01-0.12-0.03-0.15c-0.02-0.02-0.07-0.04-0.13-0.04l-0.65-0.08V4.61h3.41
	c1.57,0,2.36,0.64,2.36,1.91c0,0.91-0.44,1.55-1.32,1.9c0.14,0.07,0.26,0.16,0.34,0.28c0.08,0.12,0.17,0.3,0.27,0.53l0.57,1.38
	c0.06,0.1,0.16,0.16,0.3,0.19l0.57,0.1V11.66z M113.14,6.68l-1.05-0.09l-0.11-0.73c-0.03-0.1-0.07-0.17-0.14-0.2
	c-0.19-0.08-0.46-0.11-0.81-0.11c-0.84,0-1.25,0.29-1.25,0.87c0,0.29,0.12,0.5,0.35,0.64c0.23,0.14,0.58,0.27,1.05,0.4
	c0.28,0.08,0.5,0.14,0.65,0.19c0.16,0.05,0.35,0.13,0.58,0.25c0.23,0.11,0.41,0.24,0.53,0.37c0.12,0.14,0.23,0.32,0.32,0.54
	c0.09,0.23,0.14,0.49,0.14,0.77c0,0.75-0.26,1.31-0.79,1.68c-0.53,0.37-1.21,0.55-2.03,0.55c-0.44,0-0.89-0.04-1.36-0.13
	c-0.47-0.08-0.8-0.17-1.01-0.27V9.59h1.04l0.16,0.77c0.02,0.14,0.08,0.22,0.19,0.24c0.25,0.08,0.59,0.13,1.01,0.13
	c0.9,0,1.36-0.32,1.36-0.95c0-0.3-0.11-0.53-0.34-0.67c-0.23-0.14-0.59-0.27-1.08-0.39c-0.33-0.08-0.59-0.15-0.79-0.22
	c-0.19-0.07-0.42-0.18-0.67-0.33c-0.25-0.15-0.43-0.35-0.56-0.6c-0.12-0.25-0.18-0.56-0.18-0.92c0-0.71,0.25-1.25,0.75-1.62
	c0.5-0.37,1.15-0.55,1.95-0.55c0.76,0,1.46,0.14,2.09,0.41V6.68z M122.77,11.66h-3.31v-0.75l0.73-0.1l-1.49-2.12L118,9.45v1.19
	c0,0.08,0.01,0.12,0.03,0.15c0.02,0.02,0.06,0.04,0.13,0.04l0.66,0.08v0.75h-3.07v-0.75l0.63-0.06c0.11-0.01,0.16-0.06,0.16-0.16
	V5.63c0-0.08-0.01-0.12-0.03-0.15c-0.02-0.02-0.07-0.04-0.13-0.06l-0.63-0.06V4.61h3.07v0.75l-0.65,0.08
	c-0.07,0.01-0.11,0.02-0.13,0.04C118.01,5.5,118,5.56,118,5.64v2.43l2.46-2.62l-0.61-0.09V4.61h2.56v0.76l-0.44,0.06
	c-0.14,0.02-0.24,0.07-0.3,0.16l-1.95,2.09l2.15,2.96c0.07,0.09,0.16,0.15,0.29,0.16l0.61,0.09V11.66z M128.18,11.66h-3.29v-0.73
	l0.73-0.08c0.11-0.01,0.16-0.07,0.16-0.19V5.63c0-0.12-0.05-0.18-0.16-0.19l-0.73-0.06V4.61h3.29v0.76l-0.79,0.08
	c-0.07,0.01-0.11,0.02-0.13,0.04c-0.02,0.02-0.03,0.07-0.03,0.13v5.02c0,0.08,0.01,0.13,0.03,0.15c0.02,0.03,0.06,0.04,0.13,0.05
	l0.79,0.08V11.66z"/>
</svg>
