<?xml version="1.0" encoding="utf-8"?>
<!-- Generator: Adobe Illustrator 28.0.0, SVG Export Plug-In . SVG Version: 6.00 Build 0)  -->
<svg version="1.1" id="Layer_1" xmlns="http://www.w3.org/2000/svg" xmlns:xlink="http://www.w3.org/1999/xlink" x="0px" y="0px"
	 viewBox="0 0 51.78 75" style="enable-background:new 0 0 51.78 75;" xml:space="preserve">
<style type="text/css">
	.st0{fill:#0F385C;}
	.st1{fill:#058CC4;}
</style>
<path class="st0" d="M18.71,65.64c0,5.17-4.19,9.36-9.36,9.36S0,70.81,0,65.64s4.19-9.36,9.36-9.36S18.71,60.48,18.71,65.64"/>
<polygon class="st0" points="51.78,31.67 51.66,31.52 1.45,31.52 1.26,31.69 1.26,46.08 1.42,46.2 51.73,46.2 51.78,46.15 "/>
<path class="st1" d="M51.58,2.52c-2.55,1.75-6.6,3.23-9.9,3.23C30.97,5.75,22.5-0.01,12.45,0C8.87,0,4.85,1.16,1.26,4.08v15.03
	l0.23,0.11c3.36-2.41,7.19-3.66,10.79-3.66c9.41,0,18.29,5.38,29.03,5.38c3.74,0,8.19-1.56,10.45-3.5V2.59L51.58,2.52z"/>
</svg>
