<?xml version="1.0" encoding="utf-8"?>
<!-- Generator: Adobe Illustrator 28.0.0, SVG Export Plug-In . SVG Version: 6.00 Build 0)  -->
<svg version="1.1" id="Layer_1" xmlns="http://www.w3.org/2000/svg" xmlns:xlink="http://www.w3.org/1999/xlink" x="0px" y="0px"
	 viewBox="0 0 170.9 100" style="enable-background:new 0 0 170.9 100;" xml:space="preserve">
<style type="text/css">
	.st0{fill:#0F385C;}
	.st1{fill:#058CC4;}
</style>
<g>
	<path class="st0" d="M24.9,87.5c0,6.9-5.6,12.5-12.5,12.5S0,94.4,0,87.5c0-6.9,5.6-12.5,12.5-12.5S24.9,80.6,24.9,87.5"/>
	<path class="st1" d="M68.8,3.4C65.4,5.7,60,7.7,55.6,7.7C41.3,7.7,30,0,16.6,0C11.8,0,6.5,1.5,1.7,5.4v20L2,25.6
		c4.5-3.2,9.6-4.9,14.4-4.9c12.6,0,24.4,7.2,38.7,7.2c5,0,10.9-2.1,13.9-4.7V3.5L68.8,3.4z"/>
	<polygon class="st0" points="69,42.2 68.9,42 1.9,42 1.7,42.2 1.7,61.4 1.9,61.6 69,61.6 69,61.5 	"/>
	<path d="M85.3,10.7h0.9c0.6,0,1-0.1,1.4-0.3c0.4-0.2,0.5-0.7,0.5-1.3c0-0.6-0.2-1-0.5-1.2c-0.3-0.2-0.7-0.3-1.3-0.3h-1V10.7z
		 M87.4,15.5h-5.2v-1l0.9-0.1c0.1,0,0.1,0,0.2-0.1c0,0,0-0.1,0-0.2V7.5c0-0.2-0.1-0.2-0.2-0.3l-0.9-0.1v-1h4.5
		c2.2,0,3.3,0.9,3.3,2.8c0,2.1-1.2,3.1-3.7,3.1h-1.1v2.1c0,0.1,0,0.2,0,0.2c0,0,0.1,0,0.2,0.1l1.9,0.1V15.5z"/>
	<path d="M98.2,14.2c0.8,0,1.5-0.3,1.9-0.8c0.5-0.6,0.7-1.4,0.7-2.6c0-1.1-0.2-1.9-0.7-2.4c-0.5-0.5-1.1-0.8-1.9-0.8
		c-0.8,0-1.5,0.3-2,0.8c-0.5,0.6-0.8,1.4-0.8,2.5c0,1.1,0.2,2,0.7,2.6C96.7,13.9,97.3,14.2,98.2,14.2 M98.1,15.7
		c-1.5,0-2.7-0.4-3.5-1.3c-0.8-0.9-1.1-2.1-1.1-3.6c0-1.4,0.4-2.6,1.3-3.5c0.8-0.9,2-1.4,3.5-1.4c1.5,0,2.6,0.4,3.4,1.3
		c0.8,0.9,1.1,2,1.1,3.4c0,1.6-0.4,2.8-1.2,3.7C100.8,15.3,99.6,15.7,98.1,15.7"/>
	<path d="M117.6,15.5h-4.2v-1l1.1-0.1c0.1,0,0.1,0,0.2-0.1c0,0,0-0.1,0-0.2V8.7h-0.1l-2,4.7h-2.1l-2.1-4.7h-0.1v5.5
		c0,0.1,0,0.2,0,0.2c0,0,0.1,0.1,0.2,0.1l1.1,0.1v1h-4.1v-1l0.8-0.1c0.1,0,0.2-0.1,0.2-0.2V7.5c0-0.1,0-0.2,0-0.2c0,0-0.1,0-0.2-0.1
		l-0.8-0.1v-1h3.6l2.4,5.8h0.1l2.5-5.8h3.4v1l-0.9,0.1c-0.1,0-0.2,0.1-0.2,0.3v6.7c0,0.2,0.1,0.2,0.2,0.3l0.9,0.1V15.5z"/>
	<path d="M125.8,14.2c0.8,0,1.5-0.3,1.9-0.8c0.5-0.6,0.7-1.4,0.7-2.6c0-1.1-0.2-1.9-0.7-2.4c-0.5-0.5-1.1-0.8-1.9-0.8
		c-0.8,0-1.5,0.3-2,0.8c-0.5,0.6-0.8,1.4-0.8,2.5c0,1.1,0.2,2,0.7,2.6C124.3,13.9,124.9,14.2,125.8,14.2 M125.7,15.7
		c-1.5,0-2.7-0.4-3.5-1.3c-0.8-0.9-1.1-2.1-1.1-3.6c0-1.4,0.4-2.6,1.3-3.5c0.8-0.9,2-1.4,3.5-1.4c1.5,0,2.6,0.4,3.4,1.3
		c0.8,0.9,1.1,2,1.1,3.4c0,1.6-0.4,2.8-1.2,3.7C128.4,15.3,127.2,15.7,125.7,15.7"/>
	<path d="M135.9,10.4h0.7c0.6,0,1.1-0.1,1.4-0.3c0.3-0.2,0.5-0.6,0.5-1.2c0-0.5-0.2-0.9-0.5-1.1c-0.3-0.2-0.8-0.3-1.5-0.3h-0.8V10.4
		z M141.6,15.5h-4v-1l1-0.1l-0.9-2.3c-0.1-0.3-0.4-0.5-0.7-0.5h-1v2.5c0,0.1,0,0.2,0,0.2c0,0,0.1,0,0.2,0.1l0.8,0.1v1h-4v-1l0.9-0.1
		c0.1,0,0.2-0.1,0.2-0.2V7.5c0-0.1,0-0.2,0-0.2c0,0-0.1,0-0.2-0.1l-0.9-0.1v-1h4.5c2.1,0,3.1,0.9,3.1,2.6c0,1.2-0.6,2.1-1.8,2.5
		c0.2,0.1,0.3,0.2,0.4,0.4c0.1,0.2,0.2,0.4,0.4,0.7l0.8,1.8c0.1,0.1,0.2,0.2,0.4,0.3l0.8,0.1V15.5z"/>
	<path d="M150.9,8.9l-1.4-0.1l-0.2-1c0-0.1-0.1-0.2-0.2-0.3c-0.3-0.1-0.6-0.2-1.1-0.2c-1.1,0-1.7,0.4-1.7,1.2c0,0.4,0.2,0.7,0.5,0.9
		c0.3,0.2,0.8,0.4,1.4,0.5c0.4,0.1,0.7,0.2,0.9,0.3c0.2,0.1,0.5,0.2,0.8,0.3c0.3,0.2,0.5,0.3,0.7,0.5c0.2,0.2,0.3,0.4,0.4,0.7
		c0.1,0.3,0.2,0.6,0.2,1c0,1-0.4,1.7-1.1,2.2c-0.7,0.5-1.6,0.7-2.7,0.7c-0.6,0-1.2-0.1-1.8-0.2c-0.6-0.1-1.1-0.2-1.3-0.4v-2.4h1.4
		l0.2,1c0,0.2,0.1,0.3,0.3,0.3c0.3,0.1,0.8,0.2,1.4,0.2c1.2,0,1.8-0.4,1.8-1.3c0-0.4-0.2-0.7-0.5-0.9c-0.3-0.2-0.8-0.4-1.4-0.5
		c-0.4-0.1-0.8-0.2-1-0.3c-0.3-0.1-0.6-0.2-0.9-0.4c-0.3-0.2-0.6-0.5-0.7-0.8c-0.2-0.3-0.2-0.7-0.2-1.2c0-0.9,0.3-1.7,1-2.2
		c0.7-0.5,1.5-0.7,2.6-0.7c1,0,1.9,0.2,2.8,0.5V8.9z"/>
	<path d="M163.7,15.5h-4.4v-1l1-0.1l-2-2.8l-0.9,1v1.6c0,0.1,0,0.2,0,0.2c0,0,0.1,0,0.2,0.1l0.9,0.1v1h-4.1v-1l0.8-0.1
		c0.1,0,0.2-0.1,0.2-0.2V7.5c0-0.1,0-0.2,0-0.2c0,0-0.1-0.1-0.2-0.1l-0.8-0.1v-1h4.1v1l-0.9,0.1c-0.1,0-0.1,0-0.2,0.1
		c0,0,0,0.1,0,0.2v3.2l3.3-3.5l-0.8-0.1v-1h3.4v1l-0.6,0.1c-0.2,0-0.3,0.1-0.4,0.2l-2.6,2.8l2.9,4c0.1,0.1,0.2,0.2,0.4,0.2l0.8,0.1
		V15.5z"/>
	<path d="M170.9,15.5h-4.4v-1l1-0.1c0.1,0,0.2-0.1,0.2-0.3V7.5c0-0.2-0.1-0.2-0.2-0.3l-1-0.1v-1h4.4v1l-1,0.1c-0.1,0-0.1,0-0.2,0.1
		c0,0,0,0.1,0,0.2v6.7c0,0.1,0,0.2,0,0.2c0,0,0.1,0.1,0.2,0.1l1,0.1V15.5z"/>
	<path d="M87.5,37.4h-5.2v-1l0.8-0.1c0.1,0,0.2-0.1,0.2-0.3v-6.7c0-0.1,0-0.2,0-0.2c0,0-0.1-0.1-0.2-0.1L82.3,29v-1h7v2.5L88,30.4
		l-0.2-0.9c0-0.1-0.1-0.2-0.2-0.2h-2.2V32h3.2v1.4h-3.2v2.7c0,0.1,0,0.2,0,0.2c0,0,0.1,0,0.2,0.1l2,0.1V37.4z"/>
	<path d="M97.5,33.6l-1.3-3.9h0l-1.4,3.9H97.5z M101.3,37.4h-4.1v-1l1.1-0.1l-0.5-1.5h-3.5l-0.5,1.5l1.1,0.1v1h-3.6v-1l0.6-0.1
		c0.2,0,0.3-0.1,0.4-0.3l2.9-8h2.2l3,8c0,0.1,0.1,0.2,0.3,0.2l0.6,0.2V37.4z"/>
	<path d="M113.7,37.4h-4.4v-1l1-0.1l-2-2.8l-0.9,1v1.6c0,0.1,0,0.2,0,0.2c0,0,0.1,0,0.2,0.1l0.9,0.1v1h-4.1v-1l0.8-0.1
		c0.1,0,0.2-0.1,0.2-0.2v-6.7c0-0.1,0-0.2,0-0.2c0,0-0.1-0.1-0.2-0.1l-0.8-0.1v-1h4.1v1l-0.9,0.1c-0.1,0-0.1,0-0.2,0.1
		c0,0,0,0.1,0,0.2v3.2l3.3-3.5l-0.8-0.1v-1h3.4v1l-0.6,0.1c-0.2,0-0.3,0.1-0.4,0.2l-2.6,2.8l2.9,4c0.1,0.1,0.2,0.2,0.4,0.2l0.8,0.1
		V37.4z"/>
	<path d="M123.5,33.8v-4.4c0-0.1,0-0.2,0-0.2c0,0-0.1-0.1-0.2-0.1l-0.8-0.1v-1h3.9v1l-0.9,0.1c-0.1,0-0.1,0-0.2,0.1c0,0,0,0.1,0,0.2
		v4.7c0,2.3-1.3,3.5-3.9,3.5c-1.3,0-2.2-0.3-2.8-0.9c-0.6-0.6-0.9-1.5-0.9-2.7v-4.7c0-0.1,0-0.2,0-0.2c0,0-0.1-0.1-0.2-0.1l-0.8-0.1
		v-1h4.1v1l-0.9,0.1c-0.1,0-0.2,0-0.2,0.1c0,0,0,0.1,0,0.2v4.4c0,0.8,0.1,1.4,0.4,1.7c0.3,0.3,0.8,0.5,1.5,0.5
		c0.7,0,1.2-0.2,1.5-0.5C123.4,35.1,123.5,34.6,123.5,33.8"/>
	<path d="M137.2,37.4h-7.4v-1l0.8-0.1c0.1,0,0.2-0.1,0.2-0.3v-6.7c0-0.1,0-0.2,0-0.2c0,0-0.1-0.1-0.2-0.1l-0.8-0.1v-1h4.3v1
		l-1.1,0.1c-0.1,0-0.1,0-0.2,0.1c0,0,0,0.1,0,0.2v6.7h2.6c0.1,0,0.2,0,0.2-0.1l0.2-1.3h1.4V37.4z"/>
	<path d="M146.1,37.4h-5.2v-1l1.4-0.1c0.1,0,0.1,0,0.2-0.1c0,0,0-0.1,0-0.2v-6.7H141c-0.1,0-0.2,0-0.2,0.1l-0.2,1.1h-1.4V28h8.5v2.6
		h-1.4l-0.2-1.1c0-0.1-0.1-0.1-0.2-0.1h-1.5v6.7c0,0.1,0,0.2,0,0.2c0,0,0.1,0,0.2,0.1l1.5,0.1V37.4z"/>
	<path d="M158.4,37.4H151v-1l0.8-0.1c0.1,0,0.2-0.1,0.2-0.3v-6.7c0-0.1,0-0.2,0-0.2c0,0-0.1-0.1-0.2-0.1L151,29v-1h7.1v2.5l-1.4-0.1
		l-0.2-0.9c0-0.1-0.1-0.2-0.2-0.2H154V32h3.2v1.4H154v2.7h2.6c0.1,0,0.2,0,0.2-0.1l0.2-1.1h1.4V37.4z"/>
	<path d="M168.4,37.4h-5.2v-1l1.4-0.1c0.1,0,0.1,0,0.2-0.1c0,0,0-0.1,0-0.2v-6.7h-1.5c-0.1,0-0.2,0-0.2,0.1l-0.2,1.1h-1.4V28h8.5
		v2.6h-1.4l-0.2-1.1c0-0.1-0.1-0.1-0.2-0.1h-1.5v6.7c0,0.1,0,0.2,0,0.2c0,0,0.1,0,0.2,0.1l1.5,0.1V37.4z"/>
	<path d="M89.1,55.6v-4.4c0-0.1,0-0.2,0-0.2c0,0-0.1-0.1-0.2-0.1L88,50.9v-1h3.9v1L91,51c-0.1,0-0.1,0-0.2,0.1c0,0,0,0.1,0,0.2v4.7
		c0,2.3-1.3,3.5-3.9,3.5c-1.3,0-2.2-0.3-2.8-0.9c-0.6-0.6-0.9-1.5-0.9-2.7v-4.7c0-0.1,0-0.2,0-0.2c0,0-0.1-0.1-0.2-0.1l-0.8-0.1v-1
		h4.1v1L85.4,51c-0.1,0-0.2,0-0.2,0.1c0,0,0,0.1,0,0.2v4.4c0,0.8,0.1,1.4,0.4,1.7c0.3,0.3,0.8,0.5,1.5,0.5c0.7,0,1.2-0.2,1.5-0.5
		C88.9,57,89.1,56.4,89.1,55.6"/>
	<path d="M107.9,52.6l-1.4-0.1l-0.2-1c0-0.1-0.1-0.2-0.2-0.3c-0.3-0.1-0.6-0.2-1.1-0.2c-1.1,0-1.7,0.4-1.7,1.2
		c0,0.4,0.2,0.7,0.5,0.9c0.3,0.2,0.8,0.4,1.4,0.5c0.4,0.1,0.7,0.2,0.9,0.3c0.2,0.1,0.5,0.2,0.8,0.3c0.3,0.2,0.5,0.3,0.7,0.5
		c0.2,0.2,0.3,0.4,0.4,0.7c0.1,0.3,0.2,0.6,0.2,1c0,1-0.4,1.7-1.1,2.2c-0.7,0.5-1.6,0.7-2.7,0.7c-0.6,0-1.2-0.1-1.8-0.2
		c-0.6-0.1-1.1-0.2-1.3-0.4v-2.4h1.4l0.2,1c0,0.2,0.1,0.3,0.3,0.3c0.3,0.1,0.8,0.2,1.4,0.2c1.2,0,1.8-0.4,1.8-1.3
		c0-0.4-0.2-0.7-0.5-0.9c-0.3-0.2-0.8-0.4-1.4-0.5c-0.4-0.1-0.8-0.2-1-0.3c-0.3-0.1-0.6-0.2-0.9-0.4c-0.3-0.2-0.6-0.5-0.7-0.8
		c-0.2-0.3-0.2-0.7-0.2-1.2c0-0.9,0.3-1.7,1-2.2c0.7-0.5,1.5-0.7,2.6-0.7c1,0,1.9,0.2,2.8,0.5V52.6z"/>
	<path d="M114.7,54.4h0.9c0.6,0,1-0.1,1.4-0.3c0.4-0.2,0.5-0.7,0.5-1.3c0-0.6-0.2-1-0.5-1.2c-0.3-0.2-0.7-0.3-1.3-0.3h-1V54.4z
		 M116.8,59.3h-5.2v-1l0.9-0.1c0.1,0,0.1,0,0.2-0.1c0,0,0-0.1,0-0.2v-6.7c0-0.2-0.1-0.2-0.2-0.3l-0.9-0.1v-1h4.5
		c2.2,0,3.3,0.9,3.3,2.8c0,2.1-1.2,3.1-3.7,3.1h-1.1v2.1c0,0.1,0,0.2,0,0.2c0,0,0.1,0,0.2,0.1l1.9,0.1V59.3z"/>
	<path d="M130.4,59.3H123v-1l0.8-0.1c0.1,0,0.2-0.1,0.2-0.3v-6.7c0-0.1,0-0.2,0-0.2c0,0-0.1-0.1-0.2-0.1l-0.8-0.1v-1h4.3v1l-1.1,0.1
		c-0.1,0-0.1,0-0.2,0.1c0,0,0,0.1,0,0.2V58h2.6c0.1,0,0.2,0,0.2-0.1l0.2-1.3h1.4V59.3z"/>
	<path d="M138.2,59.3h-4.4v-1l1-0.1c0.1,0,0.2-0.1,0.2-0.3v-6.7c0-0.2-0.1-0.2-0.2-0.3l-1-0.1v-1h4.4v1l-1,0.1c-0.1,0-0.1,0-0.2,0.1
		c0,0,0,0.1,0,0.2v6.7c0,0.1,0,0.2,0,0.2c0,0,0.1,0.1,0.2,0.1l1,0.1V59.3z"/>
	<path d="M148.4,59.3h-5.2v-1l1.4-0.1c0.1,0,0.1,0,0.2-0.1c0,0,0-0.1,0-0.2v-6.7h-1.5c-0.1,0-0.2,0-0.2,0.1l-0.2,1.1h-1.4v-2.6h8.5
		v2.6h-1.4l-0.2-1.1c0-0.1-0.1-0.1-0.2-0.1h-1.5v6.7c0,0.1,0,0.2,0,0.2c0,0,0.1,0,0.2,0.1l1.5,0.1V59.3z"/>
	<path d="M160.1,55.6v-4.4c0-0.1,0-0.2,0-0.2c0,0-0.1-0.1-0.2-0.1l-0.8-0.1v-1h3.9v1L162,51c-0.1,0-0.1,0-0.2,0.1c0,0,0,0.1,0,0.2
		v4.7c0,2.3-1.3,3.5-3.9,3.5c-1.3,0-2.2-0.3-2.8-0.9c-0.6-0.6-0.9-1.5-0.9-2.7v-4.7c0-0.1,0-0.2,0-0.2c0,0-0.1-0.1-0.2-0.1l-0.8-0.1
		v-1h4.1v1l-0.9,0.1c-0.1,0-0.2,0-0.2,0.1c0,0,0,0.1,0,0.2v4.4c0,0.8,0.1,1.4,0.4,1.7c0.3,0.3,0.8,0.5,1.5,0.5
		c0.7,0,1.2-0.2,1.5-0.5C160,57,160.1,56.4,160.1,55.6"/>
</g>
</svg>
